# xmcd
#
# Track frame offsets: 
#        150
#        11164
#        26515
#        38083
#        52046
#        62626
#        79781
#        94505
#        110113
#        127563
#        150180
#        162617
#        178587
#        191641
#        201724
#
# Disc length: 2905 seconds
#
# Revision: 0
# Processed by: cddbd v1.5.2PL0 Copyright (c) Steve Scherf et al.
# Submitted via: ExactAudioCopy v1.3
#
DISCID=c30b570f
DTITLE=Big Ron Hunter - Pouring Out The Blues
DYEAR=2006
DGENRE=Blues
TTITLE0=Play Your Cards Right
TTITLE1=Going For Myself
TTITLE2=Hard Times
TTITLE3=Hey Lady
TTITLE4=You Can't Get a Good Man Down
TTITLE5=Standing In The Rain
TTITLE6=Singing The Blues Again
TTITLE7=It Can Make You Feel Like Running
TTITLE8=The Feeling That They Had
TTITLE9=My Father Said
TTITLE10=Lonely Room
TTITLE11=It's You
TTITLE12=Pouring Out The Blues
TTITLE13=Thanks 
TTITLE14=My Solid Rock 
EXTD=
EXTT0=
EXTT1=
EXTT2=
EXTT3=
EXTT4=
EXTT5=
EXTT6=
EXTT7=
EXTT8=
EXTT9=
EXTT10=
EXTT11=
EXTT12=
EXTT13=
EXTT14=
PLAYORDER=
